HIERARCHY
ROOT mixamorig:Hips
{
	OFFSET -0.000008 104.274872 1.554316
	CHANNELS 6 Xposition Yposition Zposition Xrotation Yrotation Zrotation
	JOINT mixamorig:Spine
	{
		OFFSET -0.000005 10.181595 0.131519
		CHANNELS 6 Xposition Yposition Zposition Xrotation Yrotation Zrotation
		JOINT mixamorig:Spine1
		{
			OFFSET -0.000000 9.893959 -1.470707
			CHANNELS 6 Xposition Yposition Zposition Xrotation Yrotation Zrotation
			JOINT mixamorig:Spine2
			{
				OFFSET -0.000000 9.220757 -1.370641
				CHANNELS 6 Xposition Yposition Zposition Xrotation Yrotation Zrotation
				JOINT mixamorig:Neck
				{
					OFFSET 0.000001 16.740417 -2.049036
					CHANNELS 6 Xposition Yposition Zposition Xrotation Yrotation Zrotation
					JOINT mixamorig:Head
					{
						OFFSET 0.000000 9.617874 1.685006
						CHANNELS 6 Xposition Yposition Zposition Xrotation Yrotation Zrotation
						JOINT mixamorig:HeadTop_End
						{
							OFFSET 0.000002 22.037354 7.501101
							CHANNELS 6 Xposition Yposition Zposition Xrotation Yrotation Zrotation
							End Site
							{
								OFFSET 0.000168 2310.654297 -282.823242
							}
						}
					}
				}
				JOINT mixamorig:RightShoulder
				{
					OFFSET -4.569970 11.014908 -2.160885
					CHANNELS 6 Xposition Yposition Zposition Xrotation Yrotation Zrotation
					JOINT mixamorig:RightArm
					{
						OFFSET -10.592851 -0.524811 -2.232101
						CHANNELS 6 Xposition Yposition Zposition Xrotation Yrotation Zrotation
						JOINT mixamorig:RightForeArm
						{
							OFFSET -27.841511 0.000031 -0.000004
							CHANNELS 6 Xposition Yposition Zposition Xrotation Yrotation Zrotation
							JOINT mixamorig:RightHand
							{
								OFFSET -28.328831 -0.000015 0.000015
								CHANNELS 6 Xposition Yposition Zposition Xrotation Yrotation Zrotation
								JOINT mixamorig:RightHandThumb1
								{
									OFFSET -2.464806 -1.573990 2.681852
									CHANNELS 6 Xposition Yposition Zposition Xrotation Yrotation Zrotation
									JOINT mixamorig:RightHandThumb2
									{
										OFFSET -3.215179 -1.872803 1.924282
										CHANNELS 6 Xposition Yposition Zposition Xrotation Yrotation Zrotation
										JOINT mixamorig:RightHandThumb3
										{
											OFFSET -2.654831 -1.527969 1.512609
											CHANNELS 6 Xposition Yposition Zposition Xrotation Yrotation Zrotation
											JOINT mixamorig:RightHandThumb4
											{
												OFFSET -2.018814 -1.152008 1.108052
												CHANNELS 6 Xposition Yposition Zposition Xrotation Yrotation Zrotation
												End Site
												{
													OFFSET -188.809540 -114.533607 132.431396
												}
											}
										}
									}
								}
								JOINT mixamorig:RightHandIndex1
								{
									OFFSET -9.108284 -0.517868 2.259835
									CHANNELS 6 Xposition Yposition Zposition Xrotation Yrotation Zrotation
									JOINT mixamorig:RightHandIndex2
									{
										OFFSET -3.699989 0.000000 0.001215
										CHANNELS 6 Xposition Yposition Zposition Xrotation Yrotation Zrotation
										JOINT mixamorig:RightHandIndex3
										{
											OFFSET -2.850006 0.000031 -0.000522
											CHANNELS 6 Xposition Yposition Zposition Xrotation Yrotation Zrotation
											JOINT mixamorig:RightHandIndex4
											{
												OFFSET -2.772186 -0.000015 -0.000020
												CHANNELS 6 Xposition Yposition Zposition Xrotation Yrotation Zrotation
												End Site
												{
													OFFSET -277.218445 0.000000 -0.050231
												}
											}
										}
									}
								}
								JOINT mixamorig:RightHandMiddle1
								{
									OFFSET -9.532516 -0.000031 -0.000023
									CHANNELS 6 Xposition Yposition Zposition Xrotation Yrotation Zrotation
									JOINT mixamorig:RightHandMiddle2
									{
										OFFSET -3.700005 -0.000015 0.003713
										CHANNELS 6 Xposition Yposition Zposition Xrotation Yrotation Zrotation
										JOINT mixamorig:RightHandMiddle3
										{
											OFFSET -2.949974 0.000015 -0.002054
											CHANNELS 6 Xposition Yposition Zposition Xrotation Yrotation Zrotation
											JOINT mixamorig:RightHandMiddle4
											{
												OFFSET -2.946640 0.000000 -0.000156
												CHANNELS 6 Xposition Yposition Zposition Xrotation Yrotation Zrotation
												End Site
												{
													OFFSET -294.664337 0.000000 -0.113670
												}
											}
										}
									}
								}
								JOINT mixamorig:RightHandRing1
								{
									OFFSET -9.103600 -0.043076 -1.865134
									CHANNELS 6 Xposition Yposition Zposition Xrotation Yrotation Zrotation
									JOINT mixamorig:RightHandRing2
									{
										OFFSET -3.379288 0.000000 -0.001055
										CHANNELS 6 Xposition Yposition Zposition Xrotation Yrotation Zrotation
										JOINT mixamorig:RightHandRing3
										{
											OFFSET -2.889687 -0.000015 0.000379
											CHANNELS 6 Xposition Yposition Zposition Xrotation Yrotation Zrotation
											JOINT mixamorig:RightHandRing4
											{
												OFFSET -2.638809 -0.000015 0.000941
												CHANNELS 6 Xposition Yposition Zposition Xrotation Yrotation Zrotation
												End Site
												{
													OFFSET -263.880371 0.000000 0.516020
												}
											}
										}
									}
								}
								JOINT mixamorig:RightHandPinky1
								{
									OFFSET -8.076683 -0.486710 -3.806280
									CHANNELS 6 Xposition Yposition Zposition Xrotation Yrotation Zrotation
									JOINT mixamorig:RightHandPinky2
									{
										OFFSET -3.600014 -0.000015 -0.003747
										CHANNELS 6 Xposition Yposition Zposition Xrotation Yrotation Zrotation
										JOINT mixamorig:RightHandPinky3
										{
											OFFSET -2.099983 0.000000 -0.005739
											CHANNELS 6 Xposition Yposition Zposition Xrotation Yrotation Zrotation
											JOINT mixamorig:RightHandPinky4
											{
												OFFSET -2.115768 -0.000031 -0.003680
												CHANNELS 6 Xposition Yposition Zposition Xrotation Yrotation Zrotation
												End Site
												{
													OFFSET -211.577087 0.000000 -0.350686
												}
											}
										}
									}
								}
							}
						}
					}
				}
				JOINT mixamorig:LeftShoulder
				{
					OFFSET 4.570447 11.014725 -2.160855
					CHANNELS 6 Xposition Yposition Zposition Xrotation Yrotation Zrotation
					JOINT mixamorig:LeftArm
					{
						OFFSET 10.592371 -0.524597 -2.232119
						CHANNELS 6 Xposition Yposition Zposition Xrotation Yrotation Zrotation
						JOINT mixamorig:LeftForeArm
						{
							OFFSET 27.841532 -0.000031 0.000026
							CHANNELS 6 Xposition Yposition Zposition Xrotation Yrotation Zrotation
							JOINT mixamorig:LeftHand
							{
								OFFSET 28.328846 -0.000061 0.000022
								CHANNELS 6 Xposition Yposition Zposition Xrotation Yrotation Zrotation
								JOINT mixamorig:LeftHandThumb1
								{
									OFFSET 2.466141 -1.576172 2.681732
									CHANNELS 6 Xposition Yposition Zposition Xrotation Yrotation Zrotation
									JOINT mixamorig:LeftHandThumb2
									{
										OFFSET 3.217812 -1.872070 1.916482
										CHANNELS 6 Xposition Yposition Zposition Xrotation Yrotation Zrotation
										JOINT mixamorig:LeftHandThumb3
										{
											OFFSET 2.656029 -1.528778 1.514513
											CHANNELS 6 Xposition Yposition Zposition Xrotation Yrotation Zrotation
											JOINT mixamorig:LeftHandThumb4
											{
												OFFSET 2.020889 -1.154053 1.115139
												CHANNELS 6 Xposition Yposition Zposition Xrotation Yrotation Zrotation
												End Site
												{
													OFFSET 190.885437 -115.081749 130.048782
												}
											}
										}
									}
								}
								JOINT mixamorig:LeftHandIndex1
								{
									OFFSET 9.109314 -0.518021 2.259871
									CHANNELS 6 Xposition Yposition Zposition Xrotation Yrotation Zrotation
									JOINT mixamorig:LeftHandIndex2
									{
										OFFSET 3.699989 0.000000 -0.000322
										CHANNELS 6 Xposition Yposition Zposition Xrotation Yrotation Zrotation
										JOINT mixamorig:LeftHandIndex3
										{
											OFFSET 2.850006 0.000000 0.000352
											CHANNELS 6 Xposition Yposition Zposition Xrotation Yrotation Zrotation
											JOINT mixamorig:LeftHandIndex4
											{
												OFFSET 2.774864 -0.000031 -0.000027
												CHANNELS 6 Xposition Yposition Zposition Xrotation Yrotation Zrotation
												End Site
												{
													OFFSET 277.486267 0.000000 -0.009857
												}
											}
										}
									}
								}
								JOINT mixamorig:LeftHandMiddle1
								{
									OFFSET 9.533394 0.000061 0.000044
									CHANNELS 6 Xposition Yposition Zposition Xrotation Yrotation Zrotation
									JOINT mixamorig:LeftHandMiddle2
									{
										OFFSET 3.699989 -0.000015 -0.000231
										CHANNELS 6 Xposition Yposition Zposition Xrotation Yrotation Zrotation
										JOINT mixamorig:LeftHandMiddle3
										{
											OFFSET 2.949997 -0.000015 -0.000059
											CHANNELS 6 Xposition Yposition Zposition Xrotation Yrotation Zrotation
											JOINT mixamorig:LeftHandMiddle4
											{
												OFFSET 2.952896 0.000031 0.000063
												CHANNELS 6 Xposition Yposition Zposition Xrotation Yrotation Zrotation
												End Site
												{
													OFFSET 295.289337 0.000000 0.022810
												}
											}
										}
									}
								}
								JOINT mixamorig:LeftHandRing1
								{
									OFFSET 9.104523 -0.042999 -1.865074
									CHANNELS 6 Xposition Yposition Zposition Xrotation Yrotation Zrotation
									JOINT mixamorig:LeftHandRing2
									{
										OFFSET 3.150009 -0.000031 0.000043
										CHANNELS 6 Xposition Yposition Zposition Xrotation Yrotation Zrotation
										JOINT mixamorig:LeftHandRing3
										{
											OFFSET 2.949982 -0.000015 0.000040
											CHANNELS 6 Xposition Yposition Zposition Xrotation Yrotation Zrotation
											JOINT mixamorig:LeftHandRing4
											{
												OFFSET 2.644348 0.000000 0.000057
												CHANNELS 6 Xposition Yposition Zposition Xrotation Yrotation Zrotation
												End Site
												{
													OFFSET 264.434631 0.000000 0.012105
												}
											}
										}
									}
								}
								JOINT mixamorig:LeftHandPinky1
								{
									OFFSET 8.077789 -0.486847 -3.806259
									CHANNELS 6 Xposition Yposition Zposition Xrotation Yrotation Zrotation
									JOINT mixamorig:LeftHandPinky2
									{
										OFFSET 3.599953 0.000031 0.014727
										CHANNELS 6 Xposition Yposition Zposition Xrotation Yrotation Zrotation
										JOINT mixamorig:LeftHandPinky3
										{
											OFFSET 2.100021 0.000015 0.007705
											CHANNELS 6 Xposition Yposition Zposition Xrotation Yrotation Zrotation
											JOINT mixamorig:LeftHandPinky4
											{
												OFFSET 2.125504 0.000031 0.007517
												CHANNELS 6 Xposition Yposition Zposition Xrotation Yrotation Zrotation
												End Site
												{
													OFFSET 212.550781 0.000000 0.625752
												}
											}
										}
									}
								}
							}
						}
					}
				}
			}
		}
	}
	JOINT mixamorig:RightUpLeg
	{
		OFFSET -8.207787 -6.751648 -1.599560
		CHANNELS 6 Xposition Yposition Zposition Xrotation Yrotation Zrotation
		JOINT mixamorig:RightLeg
		{
			OFFSET -0.000002 -44.370117 0.345942
			CHANNELS 6 Xposition Yposition Zposition Xrotation Yrotation Zrotation
			JOINT mixamorig:RightFoot
			{
				OFFSET 0.000003 -44.423679 -3.043532
				CHANNELS 6 Xposition Yposition Zposition Xrotation Yrotation Zrotation
				JOINT mixamorig:RightToeBase
				{
					OFFSET -0.000002 -8.728671 10.710558
					CHANNELS 6 Xposition Yposition Zposition Xrotation Yrotation Zrotation
					JOINT mixamorig:RightToe_End
					{
						OFFSET -0.000001 -0.000679 9.278119
						CHANNELS 6 Xposition Yposition Zposition Xrotation Yrotation Zrotation
						End Site
						{
							OFFSET 0.000000 -0.067690 927.812134
						}
					}
				}
			}
		}
	}
	JOINT mixamorig:LeftUpLeg
	{
		OFFSET 8.207793 -6.751686 -1.599556
		CHANNELS 6 Xposition Yposition Zposition Xrotation Yrotation Zrotation
		JOINT mixamorig:LeftLeg
		{
			OFFSET -0.000004 -44.370014 0.346954
			CHANNELS 6 Xposition Yposition Zposition Xrotation Yrotation Zrotation
			JOINT mixamorig:LeftFoot
			{
				OFFSET -0.000001 -44.423672 -3.044401
				CHANNELS 6 Xposition Yposition Zposition Xrotation Yrotation Zrotation
				JOINT mixamorig:LeftToeBase
				{
					OFFSET -0.000002 -8.728669 10.710558
					CHANNELS 6 Xposition Yposition Zposition Xrotation Yrotation Zrotation
					JOINT mixamorig:LeftToe_End
					{
						OFFSET -0.000003 -0.000679 9.278133
						CHANNELS 6 Xposition Yposition Zposition Xrotation Yrotation Zrotation
						End Site
						{
							OFFSET 0.000000 -0.068021 927.813477
						}
					}
				}
			}
		}
	}
}
MOTION
Frames: 3
Frame Time: 0.033333
0.000006 104.270477 1.554256 0.000010 0.000003 -0.000113 -0.000005 10.181587 0.131522 0.000001 -0.000003 0.000084 -0.000000 9.893967 -1.470711 0.000001 0.000000 -0.000000 -0.000000 9.220802 -1.370642 0.000000 -0.000000 -0.000000 0.000001 16.740433 -2.049030 0.000000 -0.000000 -0.000000 0.000000 9.617859 1.685014 0.000000 0.000000 0.000000 0.000002 22.037384 7.501101 0.000000 -0.000000 0.000000 -4.569968 11.014880 -2.160881 0.000008 0.000001 -0.000038 -10.592881 -0.524721 -2.231970 75.622420 17.816743 -13.870043 -27.841522 0.000015 0.000539 -52.517960 113.458308 73.876924 -28.328827 0.000021 0.000031 -0.000319 -0.000044 0.000006 -2.464406 -1.573833 2.682337 -42.019095 -155.420367 2.610425 -3.215265 -1.872561 1.924634 153.054526 33.712239 18.872964 -2.654946 -1.527887 1.513097 147.710204 26.323718 -41.592017 -2.018831 -1.151995 1.108062 -0.000002 -0.000002 0.000004 -9.108395 -0.517571 2.260116 92.664589 17.642450 -18.517889 -3.700064 0.000318 0.001490 89.590963 14.339955 -14.215357 -2.850091 0.000361 -0.000289 88.443293 11.327689 -11.025015 -2.772171 0.000004 -0.000023 0.000002 0.000001 -0.000000 -9.532591 0.000271 0.000227 90.702221 16.065066 -16.404629 -3.700063 0.000322 0.003949 90.337106 11.381377 -11.353659 -2.950061 0.000323 -0.001812 93.008189 11.063279 -11.648497 -2.946626 0.000004 -0.000159 0.000002 -0.000001 0.000001 -9.103709 -0.042753 -1.864873 91.084876 17.076561 -17.352610 -3.379312 0.000321 -0.000821 90.811525 8.250711 -8.385264 -2.889760 0.000351 0.000654 97.626400 6.089231 -7.008338 -2.638819 -0.000013 0.000947 -0.000001 0.000001 -0.000002 -8.076754 -0.486380 -3.806009 89.205009 17.409445 -17.024137 -3.600022 0.000289 -0.003501 91.802291 6.974899 -6.838140 -2.100009 0.000324 -0.005472 94.795560 3.780925 -3.879069 -2.115777 -0.000041 -0.003681 0.000002 -0.000000 -0.000003 4.570446 11.014691 -2.160851 -0.000018 0.000010 -0.000021 10.592514 -0.524528 -2.232398 65.141386 -61.296699 41.465119 27.841722 -0.000067 -0.000094 244.542656 -72.388018 261.587721 28.328835 -0.000013 0.000015 0.000021 -0.000087 0.000002 2.466148 -1.576180 2.681869 56.086337 122.158288 -109.754194 3.217873 -1.871974 1.916555 93.701699 153.824657 -148.379781 2.656083 -1.528681 1.514634 -87.702935 12.021805 28.115255 2.020883 -1.154067 1.115141 0.000004 0.000002 0.000002 9.109280 -0.517880 2.260102 -84.500689 -18.359149 -16.695605 3.699956 0.000098 -0.000084 -77.024583 -15.602599 -12.452260 2.849980 0.000146 0.000585 -75.449671 -13.545069 -10.497189 2.774879 -0.000031 -0.000030 0.000001 0.000000 0.000003 9.533199 0.000355 0.000219 -152.601056 -18.068601 -66.223991 3.700088 0.000314 -0.000268 -217.027922 -7.915243 23.338306 2.949984 0.000281 -0.000199 -247.332952 3.290496 -4.934994 2.952873 -0.000033 0.000065 -0.000002 0.000000 0.000000 9.104287 -0.042792 -1.864935 -161.564628 -17.782512 -87.899924 3.149990 0.000376 -0.000083 -232.710173 4.710692 -9.489172 2.949914 0.000260 -0.000162 -265.586906 16.743440 -18.063057 2.644326 0.000000 0.000053 -0.000000 -0.000001 -0.000000 8.077520 -0.486622 -3.806117 -161.522144 -16.555914 -83.721884 3.599944 0.000421 0.014657 -212.116852 2.013685 -5.604455 2.099889 0.000345 0.007540 -243.041572 14.861071 -23.570993 2.125500 -0.000013 0.007514 0.000001 0.000001 -0.000002 -8.207786 -6.751667 -1.599560 -0.077001 -0.000003 0.000080 -0.000002 -44.370110 0.345938 0.153719 -0.000000 -0.000000 0.000000 -44.423679 -3.043532 -0.076700 0.000000 -0.000002 -0.000006 -8.728667 10.710559 -0.000009 -0.000000 -0.000000 -0.000001 -0.000679 9.278123 0.000000 -0.000000 -0.000000 8.207792 -6.751710 -1.599556 -0.074518 -0.000003 0.000081 -0.000002 -44.370014 0.346960 0.148822 0.000002 0.000000 -0.000001 -44.423664 -3.044403 -0.074314 0.000000 -0.000002 -0.000004 -8.728671 10.710558 0.000007 -0.000000 -0.000000 0.000000 -0.000680 9.278137 -0.000000 0.000000 -0.000001 
0.000006 104.270477 1.554256 0.000010 0.000003 -0.000113 -0.000005 10.181587 0.131522 0.000001 -0.000003 0.000084 -0.000000 9.893967 -1.470711 0.000001 0.000000 -0.000000 -0.000000 9.220802 -1.370642 0.000000 -0.000000 -0.000000 0.000001 16.740433 -2.049030 0.000000 -0.000000 -0.000000 0.000000 9.617859 1.685014 0.000000 0.000000 0.000000 0.000002 22.037384 7.501101 0.000000 -0.000000 0.000000 -4.569968 11.014880 -2.160881 0.000008 0.000001 -0.000038 -10.592881 -0.524727 -2.231951 75.323825 20.611119 -15.977669 -27.841522 0.000010 0.000531 -52.112820 113.398311 73.323085 -28.328815 0.000021 0.000022 -0.000321 -0.000048 0.000008 -2.464382 -1.573830 2.682338 -42.350738 -155.544540 1.912583 -3.215276 -1.872528 1.924625 152.667459 33.785008 19.960649 -2.654942 -1.527908 1.513091 147.631219 26.350340 -41.515976 -2.018827 -1.151998 1.108067 -0.000003 -0.000002 0.000005 -9.108381 -0.517572 2.260110 92.344472 17.604896 -18.377314 -3.700083 0.000303 0.001494 89.487807 14.486923 -14.335698 -2.850068 0.000367 -0.000289 88.587779 11.551537 -11.271184 -2.772176 0.000001 -0.000018 0.000004 -0.000001 0.000002 -9.532574 0.000271 0.000235 90.734890 16.099309 -16.448583 -3.700083 0.000327 0.003950 90.229927 11.496001 -11.447522 -2.950060 0.000345 -0.001830 92.756810 11.159691 -11.698844 -2.946639 0.000001 -0.000148 0.000002 -0.000000 -0.000000 -9.103683 -0.042759 -1.864879 91.245310 17.162688 -17.488430 -3.379330 0.000323 -0.000828 90.890161 8.284496 -8.431060 -2.889757 0.000359 0.000650 97.647239 6.129751 -7.057205 -2.638822 -0.000028 0.000940 0.000001 0.000001 -0.000001 -8.076733 -0.486394 -3.806014 89.438827 17.731263 -17.411127 -3.600037 0.000271 -0.003504 92.211495 7.092964 -7.009150 -2.100016 0.000334 -0.005475 95.070701 3.782618 -3.899629 -2.115798 -0.000026 -0.003678 0.000001 0.000002 -0.000007 4.570446 11.014691 -2.160851 -0.000018 0.000010 -0.000021 10.592517 -0.524524 -2.232394 66.141523 -61.466833 42.327666 27.841709 -0.000089 -0.000084 246.547645 -72.068413 264.106094 28.328833 -0.000011 0.000032 0.000025 -0.000089 -0.000000 2.466158 -1.576142 2.681881 92.903816 136.747477 -143.620601 3.217849 -1.871969 1.916548 89.832041 149.208160 -144.836511 2.656096 -1.528742 1.514621 -110.610672 28.615547 46.884679 2.020883 -1.154066 1.115146 0.000001 0.000003 0.000006 9.109267 -0.517871 2.260111 -86.141451 -19.652230 -18.388375 3.699955 0.000117 -0.000113 -76.625413 -17.384676 -13.782754 2.849978 0.000118 0.000569 -72.316568 -14.701437 -10.770335 2.774891 -0.000027 -0.000024 0.000001 -0.000001 -0.000002 9.533171 0.000340 0.000220 -151.862972 -19.887817 -69.948650 3.700093 0.000266 -0.000322 -226.071735 -9.575249 22.279683 2.950006 0.000227 -0.000227 -268.744557 2.328583 -2.377748 2.952891 -0.000016 0.000065 0.000000 -0.000000 -0.000001 9.104276 -0.042799 -1.864939 -160.904094 -19.893290 -92.388766 3.149912 0.000375 -0.000112 -240.186607 9.131247 -15.688989 2.949892 0.000198 -0.000194 -287.406874 24.129901 -17.843466 2.644324 0.000048 0.000053 0.000001 0.000001 -0.000003 8.077541 -0.486620 -3.806117 -161.049618 -17.765476 -86.263691 3.599873 0.000373 0.014595 -234.396465 8.290438 -15.391275 2.099901 0.000219 0.007495 -278.907032 23.339955 -19.858901 2.125505 -0.000013 0.007514 0.000000 -0.000001 -0.000000 -8.207786 -6.751667 -1.599560 -0.077001 -0.000003 0.000080 -0.000002 -44.370110 0.345938 0.153719 -0.000000 -0.000000 0.000000 -44.423679 -3.043532 -0.076700 0.000000 -0.000002 -0.000006 -8.728667 10.710559 -0.000009 -0.000000 -0.000000 -0.000001 -0.000679 9.278123 0.000000 -0.000000 -0.000000 8.207792 -6.751710 -1.599556 -0.074518 -0.000003 0.000081 -0.000002 -44.370014 0.346960 0.148822 0.000002 0.000000 -0.000001 -44.423664 -3.044403 -0.074314 0.000000 -0.000002 -0.000004 -8.728671 10.710558 0.000007 -0.000000 -0.000000 0.000000 -0.000680 9.278137 -0.000000 0.000000 -0.000001 
0.000006 104.270477 1.554256 0.000010 0.000003 -0.000113 -0.000005 10.181587 0.131522 0.000001 -0.000003 0.000084 -0.000000 9.893967 -1.470711 0.000001 0.000000 -0.000000 -0.000000 9.220802 -1.370642 0.000000 -0.000000 -0.000000 0.000001 16.740433 -2.049030 0.000000 -0.000000 -0.000000 0.000000 9.617859 1.685014 0.000000 0.000000 0.000000 0.000002 22.037384 7.501101 0.000000 -0.000000 0.000000 -4.569968 11.014880 -2.160881 0.000008 0.000001 -0.000038 -10.592882 -0.524719 -2.231967 75.298908 17.905341 -13.859175 -27.841522 0.000015 0.000545 -52.431927 113.089430 73.387569 -28.328836 0.000021 0.000023 -0.000319 -0.000046 0.000007 -2.464418 -1.573816 2.682337 -43.619651 -157.006255 -0.577353 -3.215266 -1.872556 1.924633 154.380266 33.342938 14.687541 -2.654956 -1.527879 1.513087 147.822834 26.180807 -42.695413 -2.018815 -1.151998 1.108059 -0.000003 -0.000004 0.000004 -9.108398 -0.517552 2.260109 92.607004 17.996596 -18.869526 -3.700082 0.000310 0.001476 89.360751 14.687287 -14.502421 -2.850084 0.000361 -0.000298 87.992787 11.424024 -11.032233 -2.772178 -0.000016 -0.000021 -0.000002 -0.000001 -0.000000 -9.532608 0.000284 0.000230 90.560939 16.320665 -16.623127 -3.700074 0.000334 0.003951 90.263081 11.573411 -11.531786 -2.950050 0.000317 -0.001835 92.551064 11.119945 -11.615636 -2.946621 0.000005 -0.000154 0.000000 0.000002 -0.000001 -9.103710 -0.042754 -1.864870 90.958367 17.015905 -17.253304 -3.379325 0.000326 -0.000829 91.290929 8.345542 -8.552477 -2.889766 0.000351 0.000643 97.956975 6.161962 -7.132741 -2.638808 -0.000015 0.000934 0.000000 0.000001 -0.000001 -8.076761 -0.486378 -3.806018 88.970133 17.201553 -16.751420 -3.600045 0.000288 -0.003512 92.072459 7.003749 -6.900158 -2.100001 0.000327 -0.005479 95.454134 3.706216 -3.842153 -2.115766 -0.000037 -0.003674 0.000004 0.000001 -0.000004 4.570446 11.014691 -2.160851 -0.000018 0.000010 -0.000021 10.592514 -0.524534 -2.232398 67.284774 -60.932500 42.756957 27.841711 -0.000070 -0.000099 246.874018 -72.718155 263.781605 28.328840 -0.000027 0.000037 0.000023 -0.000085 -0.000000 2.466154 -1.576163 2.681866 122.829655 153.711672 -162.953998 3.217844 -1.871974 1.916557 93.397038 147.586318 -146.298991 2.656086 -1.528778 1.514615 -126.026853 35.565802 61.521986 2.020887 -1.154052 1.115151 0.000004 0.000002 0.000004 9.109257 -0.517838 2.260120 -96.453090 -16.776104 -18.739409 3.699937 0.000160 -0.000067 -88.664113 -17.216402 -16.834444 2.849972 0.000153 0.000595 -82.317105 -13.451077 -11.770378 2.774882 -0.000044 -0.000012 -0.000003 -0.000000 0.000002 9.533195 0.000360 0.000233 -150.763558 -18.429734 -63.757343 3.700056 0.000240 -0.000365 -255.395772 -8.614305 11.129036 2.950009 0.000102 -0.000218 -306.015315 -0.179971 0.092927 2.952892 -0.000021 0.000070 -0.000001 -0.000001 -0.000001 9.104308 -0.042738 -1.864910 -152.462936 -18.122336 -66.115562 3.149896 0.000280 -0.000159 -266.135644 22.603840 -24.136495 2.949905 0.000120 -0.000144 -309.278916 22.924943 -10.979537 2.644323 0.000030 0.000060 0.000000 0.000001 0.000001 8.077625 -0.486541 -3.806087 -147.585307 -13.470280 -44.970041 3.599849 0.000222 0.014519 -275.786182 29.817239 -26.915644 2.099927 0.000135 0.007527 -304.907458 25.735053 -13.507841 2.125510 -0.000031 0.007516 -0.000003 0.000002 0.000000 -8.207786 -6.751667 -1.599560 -0.077001 -0.000003 0.000080 -0.000002 -44.370110 0.345938 0.153719 -0.000000 -0.000000 0.000000 -44.423679 -3.043532 -0.076700 0.000000 -0.000002 -0.000006 -8.728667 10.710559 -0.000009 -0.000000 -0.000000 -0.000001 -0.000679 9.278123 0.000000 -0.000000 -0.000000 8.207792 -6.751710 -1.599556 -0.074518 -0.000003 0.000081 -0.000002 -44.370014 0.346960 0.148822 0.000002 0.000000 -0.000001 -44.423664 -3.044403 -0.074314 0.000000 -0.000002 -0.000004 -8.728671 10.710558 0.000007 -0.000000 -0.000000 0.000000 -0.000680 9.278137 -0.000000 0.000000 -0.000001 
